solid OpenSCAD_Model
  facet normal 0 0 -1
    outer loop
      vertex -10.5 0 79.6479
      vertex -10.2982 2.04845 79.6479
      vertex -10.2982 -2.04845 79.6479
    endloop
  endfacet
  facet normal 0 0 -1
    outer loop
      vertex -10.2982 -2.04845 79.6479
      vertex -10.2982 2.04845 79.6479
      vertex -9.70073 4.01818 79.6479
    endloop
  endfacet
  facet normal 0 0 -1
    outer loop
      vertex -10.2982 -2.04845 79.6479
      vertex -9.70073 4.01818 79.6479
      vertex -8.73043 5.83349 79.6479
    endloop
  endfacet
  facet normal 0 0 -1
    outer loop
      vertex -10.2982 -2.04845 79.6479
      vertex -8.73043 5.83349 79.6479
      vertex -7.42462 7.42462 79.6479
    endloop
  endfacet
  facet normal 0 0 -1
    outer loop
      vertex -10.2982 -2.04845 79.6479
      vertex -7.42462 7.42462 79.6479
      vertex -5.83349 8.73043 79.6479
    endloop
  endfacet
  facet normal 0 0 -1
    outer loop
      vertex -10.2982 -2.04845 79.6479
      vertex -5.83349 8.73043 79.6479
      vertex -4.01818 9.70073 79.6479
    endloop
  endfacet
  facet normal 0 0 -1
    outer loop
      vertex -10.2982 -2.04845 79.6479
      vertex -4.01818 9.70073 79.6479
      vertex -2.04845 10.2982 79.6479
    endloop
  endfacet
  facet normal 0 0 -1
    outer loop
      vertex -10.2982 -2.04845 79.6479
      vertex -2.04845 10.2982 79.6479
      vertex 0 10.5 79.6479
    endloop
  endfacet
  facet normal 0 0 -1
    outer loop
      vertex -10.2982 -2.04845 79.6479
      vertex 0 10.5 79.6479
      vertex 2.04845 10.2982 79.6479
    endloop
  endfacet
  facet normal 0 0 -1
    outer loop
      vertex -10.2982 -2.04845 79.6479
      vertex 2.04845 10.2982 79.6479
      vertex 4.01818 9.70073 79.6479
    endloop
  endfacet
  facet normal 0 0 -1
    outer loop
      vertex -10.2982 -2.04845 79.6479
      vertex 4.01818 9.70073 79.6479
      vertex 5.83349 8.73043 79.6479
    endloop
  endfacet
  facet normal 0 0 -1
    outer loop
      vertex -10.2982 -2.04845 79.6479
      vertex 5.83349 8.73043 79.6479
      vertex 7.42462 7.42462 79.6479
    endloop
  endfacet
  facet normal 0 0 -1
    outer loop
      vertex -0.784501 1.89395 79.6479
      vertex 7.42462 7.42462 79.6479
      vertex 8.73043 5.83349 79.6479
    endloop
  endfacet
  facet normal 0 0 -1
    outer loop
      vertex 1.13892 1.70451 79.6479
      vertex 8.73043 5.83349 79.6479
      vertex 9.70073 4.01818 79.6479
    endloop
  endfacet
  facet normal 0 0 -1
    outer loop
      vertex 1.89395 0.784501 79.6479
      vertex 9.70073 4.01818 79.6479
      vertex 10.2982 2.04845 79.6479
    endloop
  endfacet
  facet normal 0 0 -1
    outer loop
      vertex 2.01061 -0.399935 79.6479
      vertex 10.2982 2.04845 79.6479
      vertex 10.5 0 79.6479
    endloop
  endfacet
  facet normal 0 0 -1
    outer loop
      vertex 1.44957 -1.44957 79.6479
      vertex 10.5 0 79.6479
      vertex 10.2982 -2.04845 79.6479
    endloop
  endfacet
  facet normal 0 0 -1
    outer loop
      vertex 2.5 -3.3 79.6479
      vertex 10.2982 -2.04845 79.6479
      vertex 9.70073 -4.01818 79.6479
    endloop
  endfacet
  facet normal 0 0 -1
    outer loop
      vertex 2.5 -8.3 79.6479
      vertex 5.83349 -8.73043 79.6479
      vertex 4.01818 -9.70073 79.6479
    endloop
  endfacet
  facet normal 0 0 -1
    outer loop
      vertex -2.5 -8.3 79.6479
      vertex 2.04845 -10.2982 79.6479
      vertex 0 -10.5 79.6479
    endloop
  endfacet
  facet normal 0 0 -1
    outer loop
      vertex -10.2982 -2.04845 79.6479
      vertex 0 -10.5 79.6479
      vertex -2.04845 -10.2982 79.6479
    endloop
  endfacet
  facet normal 0 0 -1
    outer loop
      vertex -10.2982 -2.04845 79.6479
      vertex -2.04845 -10.2982 79.6479
      vertex -4.01818 -9.70073 79.6479
    endloop
  endfacet
  facet normal 0 0 -1
    outer loop
      vertex -10.2982 -2.04845 79.6479
      vertex -4.01818 -9.70073 79.6479
      vertex -5.83349 -8.73043 79.6479
    endloop
  endfacet
  facet normal 0 0 -1
    outer loop
      vertex -10.2982 -2.04845 79.6479
      vertex -5.83349 -8.73043 79.6479
      vertex -7.42462 -7.42462 79.6479
    endloop
  endfacet
  facet normal 0 0 -1
    outer loop
      vertex -10.2982 -2.04845 79.6479
      vertex -7.42462 -7.42462 79.6479
      vertex -8.73043 -5.83349 79.6479
    endloop
  endfacet
  facet normal 0 0 -1
    outer loop
      vertex -10.2982 -2.04845 79.6479
      vertex -8.73043 -5.83349 79.6479
      vertex -9.70073 -4.01818 79.6479
    endloop
  endfacet
  facet normal 0 0 -1
    outer loop
      vertex -2.5 -8.3 79.6479
      vertex -10.2982 -2.04845 79.6479
      vertex -2.5 -3.3 79.6479
    endloop
  endfacet
  facet normal 0 0 -1
    outer loop
      vertex 2.5 -8.3 79.6479
      vertex 2.04845 -10.2982 79.6479
      vertex -2.5 -8.3 79.6479
    endloop
  endfacet
  facet normal 0 0 -1
    outer loop
      vertex -10.2982 -2.04845 79.6479
      vertex -2.5 -8.3 79.6479
      vertex 0 -10.5 79.6479
    endloop
  endfacet
  facet normal 0 0 -1
    outer loop
      vertex 2.5 -3.3 79.6479
      vertex 5.83349 -8.73043 79.6479
      vertex 2.5 -8.3 79.6479
    endloop
  endfacet
  facet normal 0 0 -1
    outer loop
      vertex 2.5 -3.3 79.6479
      vertex 7.42462 -7.42462 79.6479
      vertex 5.83349 -8.73043 79.6479
    endloop
  endfacet
  facet normal 0 0 -1
    outer loop
      vertex 0 -2.05 79.6479
      vertex 10.2982 -2.04845 79.6479
      vertex 2.5 -3.3 79.6479
    endloop
  endfacet
  facet normal 0 0 -1
    outer loop
      vertex 1.13892 1.70451 79.6479
      vertex 9.70073 4.01818 79.6479
      vertex 1.44957 1.44957 79.6479
    endloop
  endfacet
  facet normal 0 0 -1
    outer loop
      vertex -10.2982 -2.04845 79.6479
      vertex -2.05 0 79.6479
      vertex -2.01061 -0.399935 79.6479
    endloop
  endfacet
  facet normal 0 0 -1
    outer loop
      vertex 1.89395 0.784501 79.6479
      vertex 10.2982 2.04845 79.6479
      vertex 2.01061 0.399935 79.6479
    endloop
  endfacet
  facet normal 0 0 -1
    outer loop
      vertex -10.2982 -2.04845 79.6479
      vertex -1.89395 -0.784501 79.6479
      vertex -1.70451 -1.13892 79.6479
    endloop
  endfacet
  facet normal 0 0 -1
    outer loop
      vertex 0 -2.05 79.6479
      vertex -10.2982 -2.04845 79.6479
      vertex -0.399935 -2.01061 79.6479
    endloop
  endfacet
  facet normal 0 0 -1
    outer loop
      vertex -10.2982 -2.04845 79.6479
      vertex -1.44957 -1.44957 79.6479
      vertex -1.13892 -1.70451 79.6479
    endloop
  endfacet
  facet normal 0 0 -1
    outer loop
      vertex -10.2982 -2.04845 79.6479
      vertex -1.13892 -1.70451 79.6479
      vertex -0.784501 -1.89395 79.6479
    endloop
  endfacet
  facet normal 0 0 -1
    outer loop
      vertex -10.2982 -2.04845 79.6479
      vertex -0.784501 -1.89395 79.6479
      vertex -0.399935 -2.01061 79.6479
    endloop
  endfacet
  facet normal 0 0 -1
    outer loop
      vertex 0.399935 -2.01061 79.6479
      vertex 10.2982 -2.04845 79.6479
      vertex 0 -2.05 79.6479
    endloop
  endfacet
  facet normal 0 0 -1
    outer loop
      vertex -10.2982 -2.04845 79.6479
      vertex 0 -2.05 79.6479
      vertex 2.5 -3.3 79.6479
    endloop
  endfacet
  facet normal 0 0 -1
    outer loop
      vertex 0.784501 -1.89395 79.6479
      vertex 10.2982 -2.04845 79.6479
      vertex 0.399935 -2.01061 79.6479
    endloop
  endfacet
  facet normal 0 0 -1
    outer loop
      vertex 1.13892 -1.70451 79.6479
      vertex 10.2982 -2.04845 79.6479
      vertex 0.784501 -1.89395 79.6479
    endloop
  endfacet
  facet normal 0 0 -1
    outer loop
      vertex 1.44957 -1.44957 79.6479
      vertex 10.2982 -2.04845 79.6479
      vertex 1.13892 -1.70451 79.6479
    endloop
  endfacet
  facet normal 0 0 -1
    outer loop
      vertex 1.70451 -1.13892 79.6479
      vertex 10.5 0 79.6479
      vertex 1.44957 -1.44957 79.6479
    endloop
  endfacet
  facet normal 0 0 -1
    outer loop
      vertex 1.89395 -0.784501 79.6479
      vertex 10.5 0 79.6479
      vertex 1.70451 -1.13892 79.6479
    endloop
  endfacet
  facet normal 0 0 -1
    outer loop
      vertex 2.01061 -0.399935 79.6479
      vertex 10.5 0 79.6479
      vertex 1.89395 -0.784501 79.6479
    endloop
  endfacet
  facet normal 0 0 -1
    outer loop
      vertex 2.05 0 79.6479
      vertex 10.2982 2.04845 79.6479
      vertex 2.01061 -0.399935 79.6479
    endloop
  endfacet
  facet normal 0 0 -1
    outer loop
      vertex 2.01061 0.399935 79.6479
      vertex 10.2982 2.04845 79.6479
      vertex 2.05 0 79.6479
    endloop
  endfacet
  facet normal 0 0 -1
    outer loop
      vertex -1.44957 -1.44957 79.6479
      vertex -10.2982 -2.04845 79.6479
      vertex -1.70451 -1.13892 79.6479
    endloop
  endfacet
  facet normal 0 0 -1
    outer loop
      vertex 1.70451 1.13892 79.6479
      vertex 9.70073 4.01818 79.6479
      vertex 1.89395 0.784501 79.6479
    endloop
  endfacet
  facet normal 0 0 -1
    outer loop
      vertex 1.44957 1.44957 79.6479
      vertex 9.70073 4.01818 79.6479
      vertex 1.70451 1.13892 79.6479
    endloop
  endfacet
  facet normal 0 0 -1
    outer loop
      vertex 0.784501 1.89395 79.6479
      vertex 8.73043 5.83349 79.6479
      vertex 1.13892 1.70451 79.6479
    endloop
  endfacet
  facet normal 0 0 -1
    outer loop
      vertex -0.784501 1.89395 79.6479
      vertex 8.73043 5.83349 79.6479
      vertex -0.399935 2.01061 79.6479
    endloop
  endfacet
  facet normal 0 0 -1
    outer loop
      vertex 0.399935 2.01061 79.6479
      vertex 8.73043 5.83349 79.6479
      vertex 0.784501 1.89395 79.6479
    endloop
  endfacet
  facet normal 0 0 -1
    outer loop
      vertex 0 2.05 79.6479
      vertex 8.73043 5.83349 79.6479
      vertex 0.399935 2.01061 79.6479
    endloop
  endfacet
  facet normal 0 0 -1
    outer loop
      vertex -0.399935 2.01061 79.6479
      vertex 8.73043 5.83349 79.6479
      vertex 0 2.05 79.6479
    endloop
  endfacet
  facet normal 0 0 -1
    outer loop
      vertex -10.2982 -2.04845 79.6479
      vertex 7.42462 7.42462 79.6479
      vertex -0.784501 1.89395 79.6479
    endloop
  endfacet
  facet normal 0 0 -1
    outer loop
      vertex -1.13892 1.70451 79.6479
      vertex -10.2982 -2.04845 79.6479
      vertex -0.784501 1.89395 79.6479
    endloop
  endfacet
  facet normal 0 0 -1
    outer loop
      vertex -1.44957 1.44957 79.6479
      vertex -10.2982 -2.04845 79.6479
      vertex -1.13892 1.70451 79.6479
    endloop
  endfacet
  facet normal 0 0 -1
    outer loop
      vertex -1.70451 1.13892 79.6479
      vertex -10.2982 -2.04845 79.6479
      vertex -1.44957 1.44957 79.6479
    endloop
  endfacet
  facet normal 0 0 -1
    outer loop
      vertex -1.89395 0.784501 79.6479
      vertex -10.2982 -2.04845 79.6479
      vertex -1.70451 1.13892 79.6479
    endloop
  endfacet
  facet normal 0 0 -1
    outer loop
      vertex -2.01061 0.399935 79.6479
      vertex -10.2982 -2.04845 79.6479
      vertex -1.89395 0.784501 79.6479
    endloop
  endfacet
  facet normal 0 0 -1
    outer loop
      vertex -10.2982 -2.04845 79.6479
      vertex -2.01061 0.399935 79.6479
      vertex -2.05 0 79.6479
    endloop
  endfacet
  facet normal 0 0 -1
    outer loop
      vertex -2.5 -3.3 79.6479
      vertex -10.2982 -2.04845 79.6479
      vertex 2.5 -3.3 79.6479
    endloop
  endfacet
  facet normal 0 0 -1
    outer loop
      vertex -1.89395 -0.784501 79.6479
      vertex -10.2982 -2.04845 79.6479
      vertex -2.01061 -0.399935 79.6479
    endloop
  endfacet
  facet normal 0 0 -1
    outer loop
      vertex 2.5 -8.3 79.6479
      vertex 4.01818 -9.70073 79.6479
      vertex 2.04845 -10.2982 79.6479
    endloop
  endfacet
  facet normal 0 0 -1
    outer loop
      vertex 2.5 -3.3 79.6479
      vertex 9.70073 -4.01818 79.6479
      vertex 8.73043 -5.83349 79.6479
    endloop
  endfacet
  facet normal 0 0 -1
    outer loop
      vertex 2.5 -3.3 79.6479
      vertex 8.73043 -5.83349 79.6479
      vertex 7.42462 -7.42462 79.6479
    endloop
  endfacet
  facet normal -0.988433 0.0973524 0.116286
    outer loop
      vertex -10.2982 2.04845 79.6479
      vertex -10.5 0 79.6479
      vertex -8.33667 1.65827 96.6479
    endloop
  endfacet
  facet normal -0.988433 0.0973521 0.116286
    outer loop
      vertex -8.33667 1.65827 96.6479
      vertex -10.5 0 79.6479
      vertex -8.5 0 96.6479
    endloop
  endfacet
  facet normal -0.988433 -0.0973524 0.116286
    outer loop
      vertex -8.5 0 96.6479
      vertex -10.5 0 79.6479
      vertex -10.2982 -2.04845 79.6479
    endloop
  endfacet
  facet normal -0.988433 -0.0973521 0.116286
    outer loop
      vertex -8.5 0 96.6479
      vertex -10.2982 -2.04845 79.6479
      vertex -8.33667 -1.65827 96.6479
    endloop
  endfacet
  facet normal -0.950448 -0.288315 0.116286
    outer loop
      vertex -8.33667 -1.65827 96.6479
      vertex -10.2982 -2.04845 79.6479
      vertex -9.70073 -4.01818 79.6479
    endloop
  endfacet
  facet normal -0.950448 -0.288315 0.116286
    outer loop
      vertex -8.33667 -1.65827 96.6479
      vertex -9.70073 -4.01818 79.6479
      vertex -7.85298 -3.25281 96.6479
    endloop
  endfacet
  facet normal -0.875938 -0.468199 0.116286
    outer loop
      vertex -7.85298 -3.25281 96.6479
      vertex -9.70073 -4.01818 79.6479
      vertex -8.73043 -5.83349 79.6479
    endloop
  endfacet
  facet normal -0.875938 -0.468198 0.116286
    outer loop
      vertex -7.85298 -3.25281 96.6479
      vertex -8.73043 -5.83349 79.6479
      vertex -7.06749 -4.72235 96.6479
    endloop
  endfacet
  facet normal -0.767766 -0.630089 0.116286
    outer loop
      vertex -7.06749 -4.72235 96.6479
      vertex -8.73043 -5.83349 79.6479
      vertex -7.42462 -7.42462 79.6479
    endloop
  endfacet
  facet normal -0.767766 -0.630089 0.116286
    outer loop
      vertex -7.06749 -4.72235 96.6479
      vertex -7.42462 -7.42462 79.6479
      vertex -6.01041 -6.01041 96.6479
    endloop
  endfacet
  facet normal -0.630089 -0.767766 0.116286
    outer loop
      vertex -6.01041 -6.01041 96.6479
      vertex -7.42462 -7.42462 79.6479
      vertex -5.83349 -8.73043 79.6479
    endloop
  endfacet
  facet normal -0.630089 -0.767766 0.116286
    outer loop
      vertex -4.72235 -7.06749 96.6479
      vertex -6.01041 -6.01041 96.6479
      vertex -5.83349 -8.73043 79.6479
    endloop
  endfacet
  facet normal -0.468199 -0.875938 0.116286
    outer loop
      vertex -4.72235 -7.06749 96.6479
      vertex -5.83349 -8.73043 79.6479
      vertex -4.01818 -9.70073 79.6479
    endloop
  endfacet
  facet normal -0.468198 -0.875938 0.116286
    outer loop
      vertex -3.25281 -7.85298 96.6479
      vertex -4.72235 -7.06749 96.6479
      vertex -4.01818 -9.70073 79.6479
    endloop
  endfacet
  facet normal -0.288315 -0.950448 0.116286
    outer loop
      vertex -3.25281 -7.85298 96.6479
      vertex -4.01818 -9.70073 79.6479
      vertex -2.04845 -10.2982 79.6479
    endloop
  endfacet
  facet normal -0.288315 -0.950448 0.116286
    outer loop
      vertex -1.65827 -8.33667 96.6479
      vertex -3.25281 -7.85298 96.6479
      vertex -2.04845 -10.2982 79.6479
    endloop
  endfacet
  facet normal -0.0973524 -0.988433 0.116286
    outer loop
      vertex -1.65827 -8.33667 96.6479
      vertex -2.04845 -10.2982 79.6479
      vertex 0 -10.5 79.6479
    endloop
  endfacet
  facet normal -0.0973521 -0.988433 0.116286
    outer loop
      vertex 0 -8.5 96.6479
      vertex -1.65827 -8.33667 96.6479
      vertex 0 -10.5 79.6479
    endloop
  endfacet
  facet normal 0.0973524 -0.988433 0.116286
    outer loop
      vertex 0 -8.5 96.6479
      vertex 0 -10.5 79.6479
      vertex 2.04845 -10.2982 79.6479
    endloop
  endfacet
  facet normal 0.0973521 -0.988433 0.116286
    outer loop
      vertex 1.65827 -8.33667 96.6479
      vertex 0 -8.5 96.6479
      vertex 2.04845 -10.2982 79.6479
    endloop
  endfacet
  facet normal 0.288315 -0.950448 0.116286
    outer loop
      vertex 4.01818 -9.70073 79.6479
      vertex 1.65827 -8.33667 96.6479
      vertex 2.04845 -10.2982 79.6479
    endloop
  endfacet
  facet normal 0.288315 -0.950448 0.116286
    outer loop
      vertex 3.25281 -7.85298 96.6479
      vertex 1.65827 -8.33667 96.6479
      vertex 4.01818 -9.70073 79.6479
    endloop
  endfacet
  facet normal 0.468199 -0.875938 0.116286
    outer loop
      vertex 5.83349 -8.73043 79.6479
      vertex 3.25281 -7.85298 96.6479
      vertex 4.01818 -9.70073 79.6479
    endloop
  endfacet
  facet normal 0.468198 -0.875938 0.116286
    outer loop
      vertex 4.72235 -7.06749 96.6479
      vertex 3.25281 -7.85298 96.6479
      vertex 5.83349 -8.73043 79.6479
    endloop
  endfacet
  facet normal 0.630089 -0.767766 0.116286
    outer loop
      vertex 7.42462 -7.42462 79.6479
      vertex 4.72235 -7.06749 96.6479
      vertex 5.83349 -8.73043 79.6479
    endloop
  endfacet
  facet normal 0.630089 -0.767766 0.116286
    outer loop
      vertex 6.01041 -6.01041 96.6479
      vertex 4.72235 -7.06749 96.6479
      vertex 7.42462 -7.42462 79.6479
    endloop
  endfacet
  facet normal 0.767766 -0.630089 0.116286
    outer loop
      vertex 8.73043 -5.83349 79.6479
      vertex 6.01041 -6.01041 96.6479
      vertex 7.42462 -7.42462 79.6479
    endloop
  endfacet
  facet normal 0.767766 -0.630089 0.116286
    outer loop
      vertex 7.06749 -4.72235 96.6479
      vertex 6.01041 -6.01041 96.6479
      vertex 8.73043 -5.83349 79.6479
    endloop
  endfacet
  facet normal 0.875938 -0.468199 0.116286
    outer loop
      vertex 9.70073 -4.01818 79.6479
      vertex 7.06749 -4.72235 96.6479
      vertex 8.73043 -5.83349 79.6479
    endloop
  endfacet
  facet normal 0.875938 -0.468198 0.116286
    outer loop
      vertex 7.85298 -3.25281 96.6479
      vertex 7.06749 -4.72235 96.6479
      vertex 9.70073 -4.01818 79.6479
    endloop
  endfacet
  facet normal 0.950448 -0.288315 0.116286
    outer loop
      vertex 10.2982 -2.04845 79.6479
      vertex 7.85298 -3.25281 96.6479
      vertex 9.70073 -4.01818 79.6479
    endloop
  endfacet
  facet normal 0.950448 -0.288315 0.116286
    outer loop
      vertex 8.33667 -1.65827 96.6479
      vertex 7.85298 -3.25281 96.6479
      vertex 10.2982 -2.04845 79.6479
    endloop
  endfacet
  facet normal 0.988433 -0.0973524 0.116286
    outer loop
      vertex 10.5 0 79.6479
      vertex 8.33667 -1.65827 96.6479
      vertex 10.2982 -2.04845 79.6479
    endloop
  endfacet
  facet normal 0.988433 -0.0973521 0.116286
    outer loop
      vertex 8.5 0 96.6479
      vertex 8.33667 -1.65827 96.6479
      vertex 10.5 0 79.6479
    endloop
  endfacet
  facet normal 0.988433 0.0973524 0.116286
    outer loop
      vertex 10.2982 2.04845 79.6479
      vertex 8.5 0 96.6479
      vertex 10.5 0 79.6479
    endloop
  endfacet
  facet normal 0.988433 0.0973521 0.116286
    outer loop
      vertex 10.2982 2.04845 79.6479
      vertex 8.33667 1.65827 96.6479
      vertex 8.5 0 96.6479
    endloop
  endfacet
  facet normal 0.950448 0.288315 0.116286
    outer loop
      vertex 9.70073 4.01818 79.6479
      vertex 8.33667 1.65827 96.6479
      vertex 10.2982 2.04845 79.6479
    endloop
  endfacet
  facet normal 0.950448 0.288315 0.116286
    outer loop
      vertex 9.70073 4.01818 79.6479
      vertex 7.85298 3.25281 96.6479
      vertex 8.33667 1.65827 96.6479
    endloop
  endfacet
  facet normal 0.875938 0.468199 0.116286
    outer loop
      vertex 8.73043 5.83349 79.6479
      vertex 7.85298 3.25281 96.6479
      vertex 9.70073 4.01818 79.6479
    endloop
  endfacet
  facet normal 0.875938 0.468198 0.116286
    outer loop
      vertex 8.73043 5.83349 79.6479
      vertex 7.06749 4.72235 96.6479
      vertex 7.85298 3.25281 96.6479
    endloop
  endfacet
  facet normal 0.767766 0.630089 0.116286
    outer loop
      vertex 7.42462 7.42462 79.6479
      vertex 7.06749 4.72235 96.6479
      vertex 8.73043 5.83349 79.6479
    endloop
  endfacet
  facet normal 0.767766 0.630089 0.116286
    outer loop
      vertex 7.42462 7.42462 79.6479
      vertex 6.01041 6.01041 96.6479
      vertex 7.06749 4.72235 96.6479
    endloop
  endfacet
  facet normal 0.630089 0.767766 0.116286
    outer loop
      vertex 7.42462 7.42462 79.6479
      vertex 5.83349 8.73043 79.6479
      vertex 6.01041 6.01041 96.6479
    endloop
  endfacet
  facet normal 0.630089 0.767766 0.116286
    outer loop
      vertex 5.83349 8.73043 79.6479
      vertex 4.72235 7.06749 96.6479
      vertex 6.01041 6.01041 96.6479
    endloop
  endfacet
  facet normal 0.468199 0.875938 0.116286
    outer loop
      vertex 5.83349 8.73043 79.6479
      vertex 4.01818 9.70073 79.6479
      vertex 4.72235 7.06749 96.6479
    endloop
  endfacet
  facet normal 0.468198 0.875938 0.116286
    outer loop
      vertex 4.01818 9.70073 79.6479
      vertex 3.25281 7.85298 96.6479
      vertex 4.72235 7.06749 96.6479
    endloop
  endfacet
  facet normal 0.288315 0.950448 0.116286
    outer loop
      vertex 2.04845 10.2982 79.6479
      vertex 2.66918 9.03794 88.4098
      vertex 4.01818 9.70073 79.6479
    endloop
  endfacet
  facet normal 0.288315 0.950448 0.116286
    outer loop
      vertex 4.01818 9.70073 79.6479
      vertex 2.66918 9.03794 88.4098
      vertex 2.91014 8.92892 88.7034
    endloop
  endfacet
  facet normal 0.288315 0.950448 0.116286
    outer loop
      vertex 4.01818 9.70073 79.6479
      vertex 2.91014 8.92892 88.7034
      vertex 3.23358 8.75678 89.3085
    endloop
  endfacet
  facet normal 0.288315 0.950448 0.116286
    outer loop
      vertex 3.23358 8.75678 89.3085
      vertex 3.43275 8.61603 89.9651
      vertex 4.01818 9.70073 79.6479
    endloop
  endfacet
  facet normal 0.288315 0.950448 0.116286
    outer loop
      vertex 3.43275 8.61603 89.9651
      vertex 3.5 8.51208 90.6479
      vertex 4.01818 9.70073 79.6479
    endloop
  endfacet
  facet normal 0.288315 0.950448 0.116286
    outer loop
      vertex 3.5 8.51208 90.6479
      vertex 3.25281 7.85298 96.6479
      vertex 4.01818 9.70073 79.6479
    endloop
  endfacet
  facet normal 0.288315 0.950448 0.116286
    outer loop
      vertex 3.43275 8.44894 91.3307
      vertex 3.25281 7.85298 96.6479
      vertex 3.5 8.51208 90.6479
    endloop
  endfacet
  facet normal 0.288315 0.950448 0.116286
    outer loop
      vertex 3.23358 8.42903 91.9873
      vertex 2.95902 8.44947 92.5009
      vertex 3.25281 7.85298 96.6479
    endloop
  endfacet
  facet normal 0.288315 0.950448 0.116286
    outer loop
      vertex 3.23358 8.42903 91.9873
      vertex 3.25281 7.85298 96.6479
      vertex 3.43275 8.44894 91.3307
    endloop
  endfacet
  facet normal 0.288315 0.950448 0.116286
    outer loop
      vertex 1.86376 9.36976 87.6946
      vertex 1.9445 9.33999 87.7377
      vertex 2.04845 10.2982 79.6479
    endloop
  endfacet
  facet normal 0.288315 0.950448 0.116286
    outer loop
      vertex 2.04845 10.2982 79.6479
      vertex 1.9445 9.33999 87.7377
      vertex 2.47487 9.12585 88.173
    endloop
  endfacet
  facet normal 0.288315 0.950448 0.116286
    outer loop
      vertex 2.47487 9.12585 88.173
      vertex 2.66918 9.03794 88.4098
      vertex 2.04845 10.2982 79.6479
    endloop
  endfacet
  facet normal 0.0973524 0.988433 0.116286
    outer loop
      vertex 0 10.5 79.6479
      vertex 0.739836 9.53483 87.2324
      vertex 2.04845 10.2982 79.6479
    endloop
  endfacet
  facet normal 0.0973524 0.988433 0.116286
    outer loop
      vertex 2.04845 10.2982 79.6479
      vertex 0.739836 9.53483 87.2324
      vertex 1.33939 9.45438 87.4143
    endloop
  endfacet
  facet normal 0.0973524 0.988433 0.116286
    outer loop
      vertex 2.04845 10.2982 79.6479
      vertex 1.33939 9.45438 87.4143
      vertex 1.86376 9.36976 87.6946
    endloop
  endfacet
  facet normal 0.0973521 0.988433 0.116286
    outer loop
      vertex 0 9.61765 87.1479
      vertex 0.682816 9.54248 87.2151
      vertex 0 10.5 79.6479
    endloop
  endfacet
  facet normal 0.0973521 0.988433 0.116286
    outer loop
      vertex 0 10.5 79.6479
      vertex 0.682816 9.54248 87.2151
      vertex 0.739836 9.53483 87.2324
    endloop
  endfacet
  facet normal -0.0973524 0.988433 0.116286
    outer loop
      vertex -2.04845 10.2982 79.6479
      vertex -1.12061 9.48374 87.3479
      vertex 0 10.5 79.6479
    endloop
  endfacet
  facet normal -0.0973524 0.988433 0.116286
    outer loop
      vertex 0 10.5 79.6479
      vertex -1.12061 9.48374 87.3479
      vertex -0.682816 9.54248 87.2151
    endloop
  endfacet
  facet normal -0.0973524 0.988433 0.116286
    outer loop
      vertex 0 10.5 79.6479
      vertex -0.682816 9.54248 87.2151
      vertex 0 9.61765 87.1479
    endloop
  endfacet
  facet normal -0.0973521 0.988433 0.116286
    outer loop
      vertex -2.04845 10.2982 79.6479
      vertex -1.33939 9.45438 87.4143
      vertex -1.12061 9.48374 87.3479
    endloop
  endfacet
  facet normal -0.0973521 0.988433 0.116286
    outer loop
      vertex -2.04845 10.2982 79.6479
      vertex -1.86376 9.36976 87.6946
      vertex -1.33939 9.45438 87.4143
    endloop
  endfacet
  facet normal -0.288315 0.950448 0.116286
    outer loop
      vertex -4.01818 9.70073 79.6479
      vertex -2.78267 8.9866 88.5481
      vertex -2.04845 10.2982 79.6479
    endloop
  endfacet
  facet normal -0.288315 0.950448 0.116286
    outer loop
      vertex -2.04845 10.2982 79.6479
      vertex -2.78267 8.9866 88.5481
      vertex -2.47487 9.12585 88.173
    endloop
  endfacet
  facet normal -0.288315 0.950448 0.116286
    outer loop
      vertex -2.04845 10.2982 79.6479
      vertex -2.47487 9.12585 88.173
      vertex -1.9445 9.33999 87.7377
    endloop
  endfacet
  facet normal -0.288315 0.950448 0.116286
    outer loop
      vertex -1.9445 9.33999 87.7377
      vertex -1.86376 9.36976 87.6946
      vertex -2.04845 10.2982 79.6479
    endloop
  endfacet
  facet normal -0.288315 0.950448 0.116286
    outer loop
      vertex -3.43275 8.61603 89.9651
      vertex -4.01818 9.70073 79.6479
      vertex -3.5 8.51208 90.6479
    endloop
  endfacet
  facet normal -0.288315 0.950448 0.116286
    outer loop
      vertex -2.10554 8.59521 93.4259
      vertex -3.25281 7.85298 96.6479
      vertex -1.65827 8.33667 96.6479
    endloop
  endfacet
  facet normal -0.288315 0.950448 0.116286
    outer loop
      vertex -2.47487 8.52026 93.1227
      vertex -3.25281 7.85298 96.6479
      vertex -2.10554 8.59521 93.4259
    endloop
  endfacet
  facet normal -0.288315 0.950448 0.116286
    outer loop
      vertex -2.91014 8.45311 92.5924
      vertex -3.25281 7.85298 96.6479
      vertex -2.47487 8.52026 93.1227
    endloop
  endfacet
  facet normal -0.288315 0.950448 0.116286
    outer loop
      vertex -3.43275 8.44894 91.3307
      vertex -3.25281 7.85298 96.6479
      vertex -3.23358 8.42903 91.9873
    endloop
  endfacet
  facet normal -0.288315 0.950448 0.116286
    outer loop
      vertex -3.5 8.51208 90.6479
      vertex -3.25281 7.85298 96.6479
      vertex -3.43275 8.44894 91.3307
    endloop
  endfacet
  facet normal -0.288315 0.950448 0.116286
    outer loop
      vertex -4.01818 9.70073 79.6479
      vertex -3.25281 7.85298 96.6479
      vertex -3.5 8.51208 90.6479
    endloop
  endfacet
  facet normal -0.288315 0.950448 0.116286
    outer loop
      vertex -3.23358 8.75678 89.3085
      vertex -4.01818 9.70073 79.6479
      vertex -3.43275 8.61603 89.9651
    endloop
  endfacet
  facet normal -0.288315 0.950448 0.116286
    outer loop
      vertex -4.01818 9.70073 79.6479
      vertex -3.23358 8.75678 89.3085
      vertex -2.91014 8.92892 88.7034
    endloop
  endfacet
  facet normal -0.288315 0.950448 0.116286
    outer loop
      vertex -4.01818 9.70073 79.6479
      vertex -2.91014 8.92892 88.7034
      vertex -2.78267 8.9866 88.5481
    endloop
  endfacet
  facet normal -0.288315 0.950448 0.116286
    outer loop
      vertex -3.23358 8.42903 91.9873
      vertex -3.25281 7.85298 96.6479
      vertex -2.91014 8.45311 92.5924
    endloop
  endfacet
  facet normal -0.468199 0.875938 0.116286
    outer loop
      vertex -4.01818 9.70073 79.6479
      vertex -5.83349 8.73043 79.6479
      vertex -3.25281 7.85298 96.6479
    endloop
  endfacet
  facet normal -0.468198 0.875938 0.116286
    outer loop
      vertex -3.25281 7.85298 96.6479
      vertex -5.83349 8.73043 79.6479
      vertex -4.72235 7.06749 96.6479
    endloop
  endfacet
  facet normal -0.630089 0.767766 0.116286
    outer loop
      vertex -5.83349 8.73043 79.6479
      vertex -7.42462 7.42462 79.6479
      vertex -4.72235 7.06749 96.6479
    endloop
  endfacet
  facet normal -0.630089 0.767766 0.116286
    outer loop
      vertex -4.72235 7.06749 96.6479
      vertex -7.42462 7.42462 79.6479
      vertex -6.01041 6.01041 96.6479
    endloop
  endfacet
  facet normal -0.767766 0.630089 0.116286
    outer loop
      vertex -7.42462 7.42462 79.6479
      vertex -8.73043 5.83349 79.6479
      vertex -6.01041 6.01041 96.6479
    endloop
  endfacet
  facet normal -0.767766 0.630089 0.116286
    outer loop
      vertex -6.01041 6.01041 96.6479
      vertex -8.73043 5.83349 79.6479
      vertex -7.06749 4.72235 96.6479
    endloop
  endfacet
  facet normal -0.875938 0.468199 0.116286
    outer loop
      vertex -8.73043 5.83349 79.6479
      vertex -9.70073 4.01818 79.6479
      vertex -7.06749 4.72235 96.6479
    endloop
  endfacet
  facet normal -0.875938 0.468198 0.116286
    outer loop
      vertex -7.06749 4.72235 96.6479
      vertex -9.70073 4.01818 79.6479
      vertex -7.85298 3.25281 96.6479
    endloop
  endfacet
  facet normal -0.950448 0.288315 0.116286
    outer loop
      vertex -9.70073 4.01818 79.6479
      vertex -10.2982 2.04845 79.6479
      vertex -7.85298 3.25281 96.6479
    endloop
  endfacet
  facet normal -0.950448 0.288315 0.116286
    outer loop
      vertex -7.85298 3.25281 96.6479
      vertex -10.2982 2.04845 79.6479
      vertex -8.33667 1.65827 96.6479
    endloop
  endfacet
  facet normal 1 0 0
    outer loop
      vertex -2.5 -3.3 79.6479
      vertex -2.5 -3.3 88.2036
      vertex -2.5 -8 88.2036
    endloop
  endfacet
  facet normal 1 0 0
    outer loop
      vertex -2.5 -8.3 79.6479
      vertex -2.5 -3.3 79.6479
      vertex -2.5 -8 88.2036
    endloop
  endfacet
  facet normal 1 0 0
    outer loop
      vertex -2.5 -8 90.6479
      vertex -2.5 -8.3 90.6479
      vertex -2.5 -8 88.2036
    endloop
  endfacet
  facet normal 1 0 0
    outer loop
      vertex -2.5 -8.3 90.6479
      vertex -2.5 -8.3 79.6479
      vertex -2.5 -8 88.2036
    endloop
  endfacet
  facet normal 0 -1 0
    outer loop
      vertex 1.33939 -3.3 87.4143
      vertex 0.682816 -3.3 87.2151
      vertex 2.5 -3.3 79.6479
    endloop
  endfacet
  facet normal 0 -1 0
    outer loop
      vertex 2.5 -3.3 79.6479
      vertex 2.5 -3.3 88.2036
      vertex 2.47487 -3.3 88.173
    endloop
  endfacet
  facet normal 0 -1 0
    outer loop
      vertex 0.682816 -3.3 87.2151
      vertex 0 -3.3 87.1479
      vertex 2.5 -3.3 79.6479
    endloop
  endfacet
  facet normal 0 -1 0
    outer loop
      vertex 1.9445 -3.3 87.7377
      vertex 2.5 -3.3 79.6479
      vertex 2.47487 -3.3 88.173
    endloop
  endfacet
  facet normal 0 -1 0
    outer loop
      vertex 1.9445 -3.3 87.7377
      vertex 1.33939 -3.3 87.4143
      vertex 2.5 -3.3 79.6479
    endloop
  endfacet
  facet normal 0 -1 0
    outer loop
      vertex 0 -3.3 87.1479
      vertex -0.682816 -3.3 87.2151
      vertex 2.5 -3.3 79.6479
    endloop
  endfacet
  facet normal 0 -1 0
    outer loop
      vertex -0.682816 -3.3 87.2151
      vertex -1.33939 -3.3 87.4143
      vertex 2.5 -3.3 79.6479
    endloop
  endfacet
  facet normal 0 -1 0
    outer loop
      vertex -1.33939 -3.3 87.4143
      vertex -1.9445 -3.3 87.7377
      vertex 2.5 -3.3 79.6479
    endloop
  endfacet
  facet normal 0 -1 0
    outer loop
      vertex -1.9445 -3.3 87.7377
      vertex -2.47487 -3.3 88.173
      vertex 2.5 -3.3 79.6479
    endloop
  endfacet
  facet normal 0 -1 0
    outer loop
      vertex -2.47487 -3.3 88.173
      vertex -2.5 -3.3 88.2036
      vertex 2.5 -3.3 79.6479
    endloop
  endfacet
  facet normal 0 -1 0
    outer loop
      vertex -2.5 -3.3 88.2036
      vertex -2.5 -3.3 79.6479
      vertex 2.5 -3.3 79.6479
    endloop
  endfacet
  facet normal -1 0 0
    outer loop
      vertex 2.5 -8 90.6479
      vertex 2.5 -8 88.2036
      vertex 2.5 -8.3 90.6479
    endloop
  endfacet
  facet normal -1 0 0
    outer loop
      vertex 2.5 -3.3 79.6479
      vertex 2.5 -8 88.2036
      vertex 2.5 -3.3 88.2036
    endloop
  endfacet
  facet normal -1 0 0
    outer loop
      vertex 2.5 -8.3 79.6479
      vertex 2.5 -8 88.2036
      vertex 2.5 -3.3 79.6479
    endloop
  endfacet
  facet normal -1 0 0
    outer loop
      vertex 2.5 -8.3 90.6479
      vertex 2.5 -8 88.2036
      vertex 2.5 -8.3 79.6479
    endloop
  endfacet
  facet normal 0 1 0
    outer loop
      vertex 2.5 -8.3 90.6479
      vertex 2.5 -8.3 79.6479
      vertex -2.5 -8.3 90.6479
    endloop
  endfacet
  facet normal 0 1 0
    outer loop
      vertex -2.5 -8.3 90.6479
      vertex 2.5 -8.3 79.6479
      vertex -2.5 -8.3 79.6479
    endloop
  endfacet
  facet normal 0.995185 -0.0980167 0
    outer loop
      vertex -2.01061 0.399935 79.6479
      vertex -2.01061 0.399935 84.6479
      vertex -2.05 0 84.6479
    endloop
  endfacet
  facet normal 0.995185 -0.0980167 0
    outer loop
      vertex -2.05 0 79.6479
      vertex -2.01061 0.399935 79.6479
      vertex -2.05 0 84.6479
    endloop
  endfacet
  facet normal 0.995185 0.0980167 0
    outer loop
      vertex -2.05 0 84.6479
      vertex -2.01061 -0.399935 84.6479
      vertex -2.01061 -0.399935 79.6479
    endloop
  endfacet
  facet normal 0.995185 0.0980167 0
    outer loop
      vertex -2.05 0 79.6479
      vertex -2.05 0 84.6479
      vertex -2.01061 -0.399935 79.6479
    endloop
  endfacet
  facet normal 0.95694 -0.290285 0
    outer loop
      vertex -1.89395 0.784501 79.6479
      vertex -1.89395 0.784501 84.6479
      vertex -2.01061 0.399935 84.6479
    endloop
  endfacet
  facet normal 0.95694 -0.290285 0
    outer loop
      vertex -2.01061 0.399935 79.6479
      vertex -1.89395 0.784501 79.6479
      vertex -2.01061 0.399935 84.6479
    endloop
  endfacet
  facet normal 0.881922 -0.471396 0
    outer loop
      vertex -1.70451 1.13892 79.6479
      vertex -1.70451 1.13892 84.6479
      vertex -1.89395 0.784501 84.6479
    endloop
  endfacet
  facet normal 0.881922 -0.471396 0
    outer loop
      vertex -1.89395 0.784501 79.6479
      vertex -1.70451 1.13892 79.6479
      vertex -1.89395 0.784501 84.6479
    endloop
  endfacet
  facet normal 0.77301 -0.634393 0
    outer loop
      vertex -1.44957 1.44957 79.6479
      vertex -1.44957 1.44957 84.6479
      vertex -1.70451 1.13892 84.6479
    endloop
  endfacet
  facet normal 0.77301 -0.634393 0
    outer loop
      vertex -1.70451 1.13892 79.6479
      vertex -1.44957 1.44957 79.6479
      vertex -1.70451 1.13892 84.6479
    endloop
  endfacet
  facet normal 0.634393 -0.77301 0
    outer loop
      vertex -1.13892 1.70451 79.6479
      vertex -1.13892 1.70451 84.6479
      vertex -1.44957 1.44957 84.6479
    endloop
  endfacet
  facet normal 0.634393 -0.77301 0
    outer loop
      vertex -1.44957 1.44957 79.6479
      vertex -1.13892 1.70451 79.6479
      vertex -1.44957 1.44957 84.6479
    endloop
  endfacet
  facet normal 0.471396 -0.881922 0
    outer loop
      vertex -0.784501 1.89395 79.6479
      vertex -0.784501 1.89395 84.6479
      vertex -1.13892 1.70451 84.6479
    endloop
  endfacet
  facet normal 0.471396 -0.881922 0
    outer loop
      vertex -1.13892 1.70451 79.6479
      vertex -0.784501 1.89395 79.6479
      vertex -1.13892 1.70451 84.6479
    endloop
  endfacet
  facet normal 0.290285 -0.95694 0
    outer loop
      vertex -0.399935 2.01061 79.6479
      vertex -0.399935 2.01061 84.6479
      vertex -0.784501 1.89395 84.6479
    endloop
  endfacet
  facet normal 0.290285 -0.95694 0
    outer loop
      vertex -0.784501 1.89395 79.6479
      vertex -0.399935 2.01061 79.6479
      vertex -0.784501 1.89395 84.6479
    endloop
  endfacet
  facet normal 0.0980167 -0.995185 0
    outer loop
      vertex 0 2.05 79.6479
      vertex 0 2.05 84.6479
      vertex -0.399935 2.01061 84.6479
    endloop
  endfacet
  facet normal 0.0980167 -0.995185 0
    outer loop
      vertex -0.399935 2.01061 79.6479
      vertex 0 2.05 79.6479
      vertex -0.399935 2.01061 84.6479
    endloop
  endfacet
  facet normal -0.0980167 -0.995185 0
    outer loop
      vertex 0.399935 2.01061 79.6479
      vertex 0.399935 2.01061 84.6479
      vertex 0 2.05 84.6479
    endloop
  endfacet
  facet normal -0.0980167 -0.995185 0
    outer loop
      vertex 0 2.05 79.6479
      vertex 0.399935 2.01061 79.6479
      vertex 0 2.05 84.6479
    endloop
  endfacet
  facet normal -0.290285 -0.95694 0
    outer loop
      vertex 0.784501 1.89395 79.6479
      vertex 0.784501 1.89395 84.6479
      vertex 0.399935 2.01061 84.6479
    endloop
  endfacet
  facet normal -0.290285 -0.95694 0
    outer loop
      vertex 0.399935 2.01061 79.6479
      vertex 0.784501 1.89395 79.6479
      vertex 0.399935 2.01061 84.6479
    endloop
  endfacet
  facet normal -0.471396 -0.881922 0
    outer loop
      vertex 1.13892 1.70451 79.6479
      vertex 1.13892 1.70451 84.6479
      vertex 0.784501 1.89395 84.6479
    endloop
  endfacet
  facet normal -0.471396 -0.881922 0
    outer loop
      vertex 0.784501 1.89395 79.6479
      vertex 1.13892 1.70451 79.6479
      vertex 0.784501 1.89395 84.6479
    endloop
  endfacet
  facet normal -0.634393 -0.77301 0
    outer loop
      vertex 1.44957 1.44957 79.6479
      vertex 1.44957 1.44957 84.6479
      vertex 1.13892 1.70451 84.6479
    endloop
  endfacet
  facet normal -0.634393 -0.77301 0
    outer loop
      vertex 1.13892 1.70451 79.6479
      vertex 1.44957 1.44957 79.6479
      vertex 1.13892 1.70451 84.6479
    endloop
  endfacet
  facet normal -0.77301 -0.634393 0
    outer loop
      vertex 1.70451 1.13892 84.6479
      vertex 1.44957 1.44957 84.6479
      vertex 1.70451 1.13892 79.6479
    endloop
  endfacet
  facet normal -0.77301 -0.634393 0
    outer loop
      vertex 1.70451 1.13892 79.6479
      vertex 1.44957 1.44957 84.6479
      vertex 1.44957 1.44957 79.6479
    endloop
  endfacet
  facet normal -0.881922 -0.471396 0
    outer loop
      vertex 1.89395 0.784501 84.6479
      vertex 1.70451 1.13892 84.6479
      vertex 1.89395 0.784501 79.6479
    endloop
  endfacet
  facet normal -0.881922 -0.471396 0
    outer loop
      vertex 1.89395 0.784501 79.6479
      vertex 1.70451 1.13892 84.6479
      vertex 1.70451 1.13892 79.6479
    endloop
  endfacet
  facet normal -0.95694 -0.290285 0
    outer loop
      vertex 2.01061 0.399935 84.6479
      vertex 1.89395 0.784501 84.6479
      vertex 2.01061 0.399935 79.6479
    endloop
  endfacet
  facet normal -0.95694 -0.290285 0
    outer loop
      vertex 2.01061 0.399935 79.6479
      vertex 1.89395 0.784501 84.6479
      vertex 1.89395 0.784501 79.6479
    endloop
  endfacet
  facet normal -0.995185 -0.0980167 0
    outer loop
      vertex 2.05 0 84.6479
      vertex 2.01061 0.399935 84.6479
      vertex 2.05 0 79.6479
    endloop
  endfacet
  facet normal -0.995185 -0.0980167 0
    outer loop
      vertex 2.05 0 79.6479
      vertex 2.01061 0.399935 84.6479
      vertex 2.01061 0.399935 79.6479
    endloop
  endfacet
  facet normal -0.995185 0.0980167 0
    outer loop
      vertex 2.05 0 84.6479
      vertex 2.05 0 79.6479
      vertex 2.01061 -0.399935 84.6479
    endloop
  endfacet
  facet normal -0.995185 0.0980167 0
    outer loop
      vertex 2.01061 -0.399935 84.6479
      vertex 2.05 0 79.6479
      vertex 2.01061 -0.399935 79.6479
    endloop
  endfacet
  facet normal -0.95694 0.290285 0
    outer loop
      vertex 2.01061 -0.399935 84.6479
      vertex 2.01061 -0.399935 79.6479
      vertex 1.89395 -0.784501 84.6479
    endloop
  endfacet
  facet normal -0.95694 0.290285 0
    outer loop
      vertex 1.89395 -0.784501 84.6479
      vertex 2.01061 -0.399935 79.6479
      vertex 1.89395 -0.784501 79.6479
    endloop
  endfacet
  facet normal -0.881922 0.471396 0
    outer loop
      vertex 1.89395 -0.784501 84.6479
      vertex 1.89395 -0.784501 79.6479
      vertex 1.70451 -1.13892 84.6479
    endloop
  endfacet
  facet normal -0.881922 0.471396 0
    outer loop
      vertex 1.70451 -1.13892 84.6479
      vertex 1.89395 -0.784501 79.6479
      vertex 1.70451 -1.13892 79.6479
    endloop
  endfacet
  facet normal -0.77301 0.634393 0
    outer loop
      vertex 1.70451 -1.13892 84.6479
      vertex 1.70451 -1.13892 79.6479
      vertex 1.44957 -1.44957 84.6479
    endloop
  endfacet
  facet normal -0.77301 0.634393 0
    outer loop
      vertex 1.44957 -1.44957 84.6479
      vertex 1.70451 -1.13892 79.6479
      vertex 1.44957 -1.44957 79.6479
    endloop
  endfacet
  facet normal -0.634393 0.77301 0
    outer loop
      vertex 1.44957 -1.44957 84.6479
      vertex 1.44957 -1.44957 79.6479
      vertex 1.13892 -1.70451 84.6479
    endloop
  endfacet
  facet normal -0.634393 0.77301 0
    outer loop
      vertex 1.13892 -1.70451 84.6479
      vertex 1.44957 -1.44957 79.6479
      vertex 1.13892 -1.70451 79.6479
    endloop
  endfacet
  facet normal -0.471396 0.881922 0
    outer loop
      vertex 1.13892 -1.70451 84.6479
      vertex 1.13892 -1.70451 79.6479
      vertex 0.784501 -1.89395 84.6479
    endloop
  endfacet
  facet normal -0.471396 0.881922 0
    outer loop
      vertex 0.784501 -1.89395 84.6479
      vertex 1.13892 -1.70451 79.6479
      vertex 0.784501 -1.89395 79.6479
    endloop
  endfacet
  facet normal -0.290285 0.95694 0
    outer loop
      vertex 0.784501 -1.89395 84.6479
      vertex 0.784501 -1.89395 79.6479
      vertex 0.399935 -2.01061 84.6479
    endloop
  endfacet
  facet normal -0.290285 0.95694 0
    outer loop
      vertex 0.399935 -2.01061 84.6479
      vertex 0.784501 -1.89395 79.6479
      vertex 0.399935 -2.01061 79.6479
    endloop
  endfacet
  facet normal -0.0980167 0.995185 0
    outer loop
      vertex 0.399935 -2.01061 84.6479
      vertex 0.399935 -2.01061 79.6479
      vertex 0 -2.05 84.6479
    endloop
  endfacet
  facet normal -0.0980167 0.995185 0
    outer loop
      vertex 0 -2.05 84.6479
      vertex 0.399935 -2.01061 79.6479
      vertex 0 -2.05 79.6479
    endloop
  endfacet
  facet normal 0.0980167 0.995185 0
    outer loop
      vertex 0 -2.05 84.6479
      vertex 0 -2.05 79.6479
      vertex -0.399935 -2.01061 84.6479
    endloop
  endfacet
  facet normal 0.0980167 0.995185 0
    outer loop
      vertex -0.399935 -2.01061 84.6479
      vertex 0 -2.05 79.6479
      vertex -0.399935 -2.01061 79.6479
    endloop
  endfacet
  facet normal 0.290285 0.95694 0
    outer loop
      vertex -0.399935 -2.01061 84.6479
      vertex -0.399935 -2.01061 79.6479
      vertex -0.784501 -1.89395 84.6479
    endloop
  endfacet
  facet normal 0.290285 0.95694 0
    outer loop
      vertex -0.784501 -1.89395 84.6479
      vertex -0.399935 -2.01061 79.6479
      vertex -0.784501 -1.89395 79.6479
    endloop
  endfacet
  facet normal 0.471396 0.881922 0
    outer loop
      vertex -0.784501 -1.89395 84.6479
      vertex -0.784501 -1.89395 79.6479
      vertex -1.13892 -1.70451 84.6479
    endloop
  endfacet
  facet normal 0.471396 0.881922 0
    outer loop
      vertex -1.13892 -1.70451 84.6479
      vertex -0.784501 -1.89395 79.6479
      vertex -1.13892 -1.70451 79.6479
    endloop
  endfacet
  facet normal 0.634393 0.77301 0
    outer loop
      vertex -1.13892 -1.70451 84.6479
      vertex -1.13892 -1.70451 79.6479
      vertex -1.44957 -1.44957 84.6479
    endloop
  endfacet
  facet normal 0.634393 0.77301 0
    outer loop
      vertex -1.44957 -1.44957 84.6479
      vertex -1.13892 -1.70451 79.6479
      vertex -1.44957 -1.44957 79.6479
    endloop
  endfacet
  facet normal 0.77301 0.634393 0
    outer loop
      vertex -1.70451 -1.13892 84.6479
      vertex -1.44957 -1.44957 84.6479
      vertex -1.44957 -1.44957 79.6479
    endloop
  endfacet
  facet normal 0.77301 0.634393 0
    outer loop
      vertex -1.70451 -1.13892 79.6479
      vertex -1.70451 -1.13892 84.6479
      vertex -1.44957 -1.44957 79.6479
    endloop
  endfacet
  facet normal 0.881922 0.471396 0
    outer loop
      vertex -1.89395 -0.784501 84.6479
      vertex -1.70451 -1.13892 84.6479
      vertex -1.70451 -1.13892 79.6479
    endloop
  endfacet
  facet normal 0.881922 0.471396 0
    outer loop
      vertex -1.89395 -0.784501 79.6479
      vertex -1.89395 -0.784501 84.6479
      vertex -1.70451 -1.13892 79.6479
    endloop
  endfacet
  facet normal 0.95694 0.290285 0
    outer loop
      vertex -2.01061 -0.399935 84.6479
      vertex -1.89395 -0.784501 84.6479
      vertex -1.89395 -0.784501 79.6479
    endloop
  endfacet
  facet normal 0.95694 0.290285 0
    outer loop
      vertex -2.01061 -0.399935 79.6479
      vertex -2.01061 -0.399935 84.6479
      vertex -1.89395 -0.784501 79.6479
    endloop
  endfacet
  facet normal 0 0 1
    outer loop
      vertex -8.33667 1.65827 96.6479
      vertex -8.5 0 96.6479
      vertex -8.33667 -1.65827 96.6479
    endloop
  endfacet
  facet normal 0 0 1
    outer loop
      vertex -7.06749 -4.72235 96.6479
      vertex -8.33667 1.65827 96.6479
      vertex -7.85298 -3.25281 96.6479
    endloop
  endfacet
  facet normal 0 0 1
    outer loop
      vertex -7.85298 -3.25281 96.6479
      vertex -8.33667 1.65827 96.6479
      vertex -8.33667 -1.65827 96.6479
    endloop
  endfacet
  facet normal 0 0 1
    outer loop
      vertex -6.01041 -6.01041 96.6479
      vertex -8.33667 1.65827 96.6479
      vertex -7.06749 -4.72235 96.6479
    endloop
  endfacet
  facet normal 0 0 1
    outer loop
      vertex -4.72235 -7.06749 96.6479
      vertex -8.33667 1.65827 96.6479
      vertex -6.01041 -6.01041 96.6479
    endloop
  endfacet
  facet normal 0 0 1
    outer loop
      vertex -3.25281 -7.85298 96.6479
      vertex -8.33667 1.65827 96.6479
      vertex -4.72235 -7.06749 96.6479
    endloop
  endfacet
  facet normal 0 0 1
    outer loop
      vertex -1.65827 -8.33667 96.6479
      vertex -8.33667 1.65827 96.6479
      vertex -3.25281 -7.85298 96.6479
    endloop
  endfacet
  facet normal 0 0 1
    outer loop
      vertex -3.36805 -4.88909 96.6479
      vertex -8.33667 1.65827 96.6479
      vertex -1.65827 -8.33667 96.6479
    endloop
  endfacet
  facet normal 0 0 1
    outer loop
      vertex -1.80236e-07 6.77817 96.6479
      vertex 6.01041 6.01041 96.6479
      vertex 4.72235 7.06749 96.6479
    endloop
  endfacet
  facet normal 0 0 1
    outer loop
      vertex -1.80236e-07 6.77817 96.6479
      vertex 7.06749 4.72235 96.6479
      vertex 6.01041 6.01041 96.6479
    endloop
  endfacet
  facet normal 0 0 1
    outer loop
      vertex -1.80236e-07 6.77817 96.6479
      vertex 7.85298 3.25281 96.6479
      vertex 7.06749 4.72235 96.6479
    endloop
  endfacet
  facet normal 0 0 1
    outer loop
      vertex -1.80236e-07 6.77817 96.6479
      vertex 8.33667 1.65827 96.6479
      vertex 7.85298 3.25281 96.6479
    endloop
  endfacet
  facet normal 0 0 1
    outer loop
      vertex 0 8.5 96.6479
      vertex -8.33667 1.65827 96.6479
      vertex 1.65827 8.33667 96.6479
    endloop
  endfacet
  facet normal 0 0 1
    outer loop
      vertex -1.65827 8.33667 96.6479
      vertex -8.33667 1.65827 96.6479
      vertex 0 8.5 96.6479
    endloop
  endfacet
  facet normal 0 0 1
    outer loop
      vertex -3.25281 7.85298 96.6479
      vertex -8.33667 1.65827 96.6479
      vertex -1.65827 8.33667 96.6479
    endloop
  endfacet
  facet normal 0 0 1
    outer loop
      vertex -4.72235 7.06749 96.6479
      vertex -8.33667 1.65827 96.6479
      vertex -3.25281 7.85298 96.6479
    endloop
  endfacet
  facet normal 0 0 1
    outer loop
      vertex -6.01041 6.01041 96.6479
      vertex -8.33667 1.65827 96.6479
      vertex -4.72235 7.06749 96.6479
    endloop
  endfacet
  facet normal 0 0 1
    outer loop
      vertex -7.06749 4.72235 96.6479
      vertex -8.33667 1.65827 96.6479
      vertex -6.01041 6.01041 96.6479
    endloop
  endfacet
  facet normal 0 0 1
    outer loop
      vertex -7.85298 3.25281 96.6479
      vertex -8.33667 1.65827 96.6479
      vertex -7.06749 4.72235 96.6479
    endloop
  endfacet
  facet normal 0 0 1
    outer loop
      vertex 0 -8.5 96.6479
      vertex -3.36805 -4.88909 96.6479
      vertex -1.65827 -8.33667 96.6479
    endloop
  endfacet
  facet normal 0 0 1
    outer loop
      vertex -1.80236e-07 6.77817 96.6479
      vertex 4.72235 7.06749 96.6479
      vertex 3.25281 7.85298 96.6479
    endloop
  endfacet
  facet normal 0 0 1
    outer loop
      vertex 1.65827 8.33667 96.6479
      vertex -1.80236e-07 6.77817 96.6479
      vertex 3.25281 7.85298 96.6479
    endloop
  endfacet
  facet normal 0 0 1
    outer loop
      vertex 1.65827 8.33667 96.6479
      vertex -8.33667 1.65827 96.6479
      vertex -1.80236e-07 6.77817 96.6479
    endloop
  endfacet
  facet normal 0 0 1
    outer loop
      vertex 6.01041 -6.01041 96.6479
      vertex 3.36805 -4.88909 96.6479
      vertex 4.72235 -7.06749 96.6479
    endloop
  endfacet
  facet normal 0 0 1
    outer loop
      vertex 3.36805 -4.88909 96.6479
      vertex 3.25281 -7.85298 96.6479
      vertex 4.72235 -7.06749 96.6479
    endloop
  endfacet
  facet normal 0 0 1
    outer loop
      vertex 3.36805 -4.88909 96.6479
      vertex 1.65827 -8.33667 96.6479
      vertex 3.25281 -7.85298 96.6479
    endloop
  endfacet
  facet normal 0 0 1
    outer loop
      vertex 3.36805 -4.88909 96.6479
      vertex 0 -8.5 96.6479
      vertex 1.65827 -8.33667 96.6479
    endloop
  endfacet
  facet normal 0 0 1
    outer loop
      vertex 3.36805 -4.88909 96.6479
      vertex -3.36805 -4.88909 96.6479
      vertex 0 -8.5 96.6479
    endloop
  endfacet
  facet normal 0 0 1
    outer loop
      vertex -1.80236e-07 6.77817 96.6479
      vertex 8.5 0 96.6479
      vertex 8.33667 1.65827 96.6479
    endloop
  endfacet
  facet normal 0 0 1
    outer loop
      vertex -1.80236e-07 6.77817 96.6479
      vertex 8.33667 -1.65827 96.6479
      vertex 8.5 0 96.6479
    endloop
  endfacet
  facet normal 0 0 1
    outer loop
      vertex -1.80236e-07 6.77817 96.6479
      vertex 7.85298 -3.25281 96.6479
      vertex 8.33667 -1.65827 96.6479
    endloop
  endfacet
  facet normal 0 0 1
    outer loop
      vertex -1.80236e-07 6.77817 96.6479
      vertex 7.06749 -4.72235 96.6479
      vertex 7.85298 -3.25281 96.6479
    endloop
  endfacet
  facet normal 0 0 1
    outer loop
      vertex -1.80236e-07 6.77817 96.6479
      vertex 6.01041 -6.01041 96.6479
      vertex 7.06749 -4.72235 96.6479
    endloop
  endfacet
  facet normal 0 0 1
    outer loop
      vertex -1.80236e-07 6.77817 96.6479
      vertex 3.36805 -4.88909 96.6479
      vertex 6.01041 -6.01041 96.6479
    endloop
  endfacet
  facet normal 0 0 1
    outer loop
      vertex -3.36805 -4.88909 96.6479
      vertex -1.80236e-07 6.77817 96.6479
      vertex -8.33667 1.65827 96.6479
    endloop
  endfacet
  facet normal 0.288315 0.950448 0.116286
    outer loop
      vertex 1.65827 8.33667 96.6479
      vertex 3.25281 7.85298 96.6479
      vertex 1.72651 8.67976 93.6745
    endloop
  endfacet
  facet normal 0.288315 0.950448 0.116286
    outer loop
      vertex 2.91014 8.45311 92.5924
      vertex 3.25281 7.85298 96.6479
      vertex 2.95902 8.44947 92.5009
    endloop
  endfacet
  facet normal 0.288315 0.950448 0.116286
    outer loop
      vertex 2.47487 8.52026 93.1227
      vertex 3.25281 7.85298 96.6479
      vertex 2.91014 8.45311 92.5924
    endloop
  endfacet
  facet normal 0.288315 0.950448 0.116286
    outer loop
      vertex 1.9445 8.62789 93.558
      vertex 3.25281 7.85298 96.6479
      vertex 2.47487 8.52026 93.1227
    endloop
  endfacet
  facet normal 0.288315 0.950448 0.116286
    outer loop
      vertex 1.72651 8.67976 93.6745
      vertex 3.25281 7.85298 96.6479
      vertex 1.9445 8.62789 93.558
    endloop
  endfacet
  facet normal -0.881922 1.04671e-16 -0.471396
    outer loop
      vertex 2.95902 8.44947 92.5009
      vertex 3.23358 8.42903 91.9873
      vertex 3.23358 -8 91.9873
    endloop
  endfacet
  facet normal -0.881922 1.04671e-16 -0.471396
    outer loop
      vertex 2.95902 8.44947 92.5009
      vertex 3.23358 -8 91.9873
      vertex 2.91014 8.45311 92.5924
    endloop
  endfacet
  facet normal -0.881922 1.04671e-16 -0.471396
    outer loop
      vertex 3.23358 -8 91.9873
      vertex 2.91014 -8 92.5924
      vertex 2.91014 8.45311 92.5924
    endloop
  endfacet
  facet normal -0.95694 6.44561e-17 -0.290284
    outer loop
      vertex 3.43275 8.44894 91.3307
      vertex 3.43275 -8 91.3307
      vertex 3.23358 8.42903 91.9873
    endloop
  endfacet
  facet normal -0.95694 6.44561e-17 -0.290284
    outer loop
      vertex 3.23358 8.42903 91.9873
      vertex 3.43275 -8 91.3307
      vertex 3.23358 -8 91.9873
    endloop
  endfacet
  facet normal -0.995185 2.17643e-17 -0.0980179
    outer loop
      vertex 3.5 8.51208 90.6479
      vertex 3.5 -8 90.6479
      vertex 3.43275 8.44894 91.3307
    endloop
  endfacet
  facet normal -0.995185 2.17643e-17 -0.0980179
    outer loop
      vertex 3.43275 8.44894 91.3307
      vertex 3.5 -8 90.6479
      vertex 3.43275 -8 91.3307
    endloop
  endfacet
  facet normal -0.995185 -2.17643e-17 0.0980179
    outer loop
      vertex 3.5 8.51208 90.6479
      vertex 3.43275 8.61603 89.9651
      vertex 3.5 -8 90.6479
    endloop
  endfacet
  facet normal -0.995185 -2.17643e-17 0.0980179
    outer loop
      vertex 3.5 -8 90.6479
      vertex 3.43275 8.61603 89.9651
      vertex 3.43275 -8 89.9651
    endloop
  endfacet
  facet normal -0.95694 -6.44561e-17 0.290284
    outer loop
      vertex 3.43275 8.61603 89.9651
      vertex 3.23358 8.75678 89.3085
      vertex 3.43275 -8 89.9651
    endloop
  endfacet
  facet normal -0.95694 -6.44561e-17 0.290284
    outer loop
      vertex 3.43275 -8 89.9651
      vertex 3.23358 8.75678 89.3085
      vertex 3.23358 -8 89.3085
    endloop
  endfacet
  facet normal -0.881922 -1.04671e-16 0.471396
    outer loop
      vertex 3.23358 8.75678 89.3085
      vertex 2.91014 8.92892 88.7034
      vertex 3.23358 -8 89.3085
    endloop
  endfacet
  facet normal -0.881922 -1.04671e-16 0.471396
    outer loop
      vertex 3.23358 -8 89.3085
      vertex 2.91014 8.92892 88.7034
      vertex 2.91014 -8 88.7034
    endloop
  endfacet
  facet normal -0.77301 -1.40864e-16 0.634393
    outer loop
      vertex 2.5 -8 88.2036
      vertex 2.91014 -8 88.7034
      vertex 2.5 -3.3 88.2036
    endloop
  endfacet
  facet normal -0.77301 -1.40864e-16 0.634393
    outer loop
      vertex 2.5 -3.3 88.2036
      vertex 2.91014 -8 88.7034
      vertex 2.91014 8.92892 88.7034
    endloop
  endfacet
  facet normal -0.77301 -1.40864e-16 0.634393
    outer loop
      vertex 2.5 -3.3 88.2036
      vertex 2.91014 8.92892 88.7034
      vertex 2.66918 9.03794 88.4098
    endloop
  endfacet
  facet normal -0.77301 -1.40864e-16 0.634393
    outer loop
      vertex 2.5 -3.3 88.2036
      vertex 2.66918 9.03794 88.4098
      vertex 2.47487 9.12585 88.173
    endloop
  endfacet
  facet normal -0.77301 -1.40864e-16 0.634393
    outer loop
      vertex 2.5 -3.3 88.2036
      vertex 2.47487 9.12585 88.173
      vertex 2.47487 -3.3 88.173
    endloop
  endfacet
  facet normal -0.634393 -1.71643e-16 0.77301
    outer loop
      vertex 2.47487 -3.3 88.173
      vertex 2.47487 9.12585 88.173
      vertex 1.9445 9.33999 87.7377
    endloop
  endfacet
  facet normal -0.634393 -1.71643e-16 0.77301
    outer loop
      vertex 1.9445 -3.3 87.7377
      vertex 2.47487 -3.3 88.173
      vertex 1.9445 9.33999 87.7377
    endloop
  endfacet
  facet normal -0.471396 -1.95826e-16 0.881922
    outer loop
      vertex 1.9445 -3.3 87.7377
      vertex 1.9445 9.33999 87.7377
      vertex 1.86376 9.36976 87.6946
    endloop
  endfacet
  facet normal -0.471396 -1.95826e-16 0.881922
    outer loop
      vertex 1.33939 -3.3 87.4143
      vertex 1.9445 -3.3 87.7377
      vertex 1.33939 9.45438 87.4143
    endloop
  endfacet
  facet normal -0.471396 -1.95826e-16 0.881922
    outer loop
      vertex 1.33939 9.45438 87.4143
      vertex 1.9445 -3.3 87.7377
      vertex 1.86376 9.36976 87.6946
    endloop
  endfacet
  facet normal -0.290284 -2.12483e-16 0.95694
    outer loop
      vertex 1.33939 -3.3 87.4143
      vertex 1.33939 9.45438 87.4143
      vertex 0.739836 9.53483 87.2324
    endloop
  endfacet
  facet normal -0.290284 -2.12483e-16 0.95694
    outer loop
      vertex 0.682816 -3.3 87.2151
      vertex 1.33939 -3.3 87.4143
      vertex 0.682816 9.54248 87.2151
    endloop
  endfacet
  facet normal -0.290284 -2.12483e-16 0.95694
    outer loop
      vertex 0.682816 9.54248 87.2151
      vertex 1.33939 -3.3 87.4143
      vertex 0.739836 9.53483 87.2324
    endloop
  endfacet
  facet normal -0.0980179 -2.20975e-16 0.995185
    outer loop
      vertex 0.682816 -3.3 87.2151
      vertex 0.682816 9.54248 87.2151
      vertex 0 9.61765 87.1479
    endloop
  endfacet
  facet normal -0.0980179 -2.20975e-16 0.995185
    outer loop
      vertex 0 -3.3 87.1479
      vertex 0.682816 -3.3 87.2151
      vertex 0 9.61765 87.1479
    endloop
  endfacet
  facet normal 0.0980179 -2.20975e-16 0.995185
    outer loop
      vertex 0 -3.3 87.1479
      vertex 0 9.61765 87.1479
      vertex -0.682816 9.54248 87.2151
    endloop
  endfacet
  facet normal 0.0980179 -2.20975e-16 0.995185
    outer loop
      vertex -0.682816 -3.3 87.2151
      vertex 0 -3.3 87.1479
      vertex -0.682816 9.54248 87.2151
    endloop
  endfacet
  facet normal 0.290284 -2.12483e-16 0.95694
    outer loop
      vertex -0.682816 -3.3 87.2151
      vertex -0.682816 9.54248 87.2151
      vertex -1.12061 9.48374 87.3479
    endloop
  endfacet
  facet normal 0.290284 -2.12483e-16 0.95694
    outer loop
      vertex -1.33939 9.45438 87.4143
      vertex -0.682816 -3.3 87.2151
      vertex -1.12061 9.48374 87.3479
    endloop
  endfacet
  facet normal 0.290284 -2.12483e-16 0.95694
    outer loop
      vertex -1.33939 9.45438 87.4143
      vertex -1.33939 -3.3 87.4143
      vertex -0.682816 -3.3 87.2151
    endloop
  endfacet
  facet normal 0.471396 -1.95826e-16 0.881922
    outer loop
      vertex -1.33939 -3.3 87.4143
      vertex -1.33939 9.45438 87.4143
      vertex -1.86376 9.36976 87.6946
    endloop
  endfacet
  facet normal 0.471396 -1.95826e-16 0.881922
    outer loop
      vertex -1.9445 -3.3 87.7377
      vertex -1.33939 -3.3 87.4143
      vertex -1.9445 9.33999 87.7377
    endloop
  endfacet
  facet normal 0.471396 -1.95826e-16 0.881922
    outer loop
      vertex -1.9445 9.33999 87.7377
      vertex -1.33939 -3.3 87.4143
      vertex -1.86376 9.36976 87.6946
    endloop
  endfacet
  facet normal 0.634393 -1.71643e-16 0.77301
    outer loop
      vertex -1.9445 -3.3 87.7377
      vertex -1.9445 9.33999 87.7377
      vertex -2.47487 9.12585 88.173
    endloop
  endfacet
  facet normal 0.634393 -1.71643e-16 0.77301
    outer loop
      vertex -2.47487 -3.3 88.173
      vertex -1.9445 -3.3 87.7377
      vertex -2.47487 9.12585 88.173
    endloop
  endfacet
  facet normal 0.77301 -1.40864e-16 0.634393
    outer loop
      vertex -2.47487 9.12585 88.173
      vertex -2.5 -3.3 88.2036
      vertex -2.47487 -3.3 88.173
    endloop
  endfacet
  facet normal 0.77301 -1.40864e-16 0.634393
    outer loop
      vertex -2.78267 8.9866 88.5481
      vertex -2.5 -3.3 88.2036
      vertex -2.47487 9.12585 88.173
    endloop
  endfacet
  facet normal 0.77301 -1.40864e-16 0.634393
    outer loop
      vertex -2.5 -8 88.2036
      vertex -2.5 -3.3 88.2036
      vertex -2.78267 8.9866 88.5481
    endloop
  endfacet
  facet normal 0.77301 -1.40864e-16 0.634393
    outer loop
      vertex -2.91014 8.92892 88.7034
      vertex -2.5 -8 88.2036
      vertex -2.78267 8.9866 88.5481
    endloop
  endfacet
  facet normal 0.77301 -1.40864e-16 0.634393
    outer loop
      vertex -2.91014 -8 88.7034
      vertex -2.5 -8 88.2036
      vertex -2.91014 8.92892 88.7034
    endloop
  endfacet
  facet normal 0.881922 -1.04671e-16 0.471396
    outer loop
      vertex -2.91014 -8 88.7034
      vertex -2.91014 8.92892 88.7034
      vertex -3.23358 8.75678 89.3085
    endloop
  endfacet
  facet normal 0.881922 -1.04671e-16 0.471396
    outer loop
      vertex -3.23358 -8 89.3085
      vertex -2.91014 -8 88.7034
      vertex -3.23358 8.75678 89.3085
    endloop
  endfacet
  facet normal 0.95694 -6.44561e-17 0.290284
    outer loop
      vertex -3.23358 -8 89.3085
      vertex -3.23358 8.75678 89.3085
      vertex -3.43275 8.61603 89.9651
    endloop
  endfacet
  facet normal 0.95694 -6.44561e-17 0.290284
    outer loop
      vertex -3.43275 -8 89.9651
      vertex -3.23358 -8 89.3085
      vertex -3.43275 8.61603 89.9651
    endloop
  endfacet
  facet normal 0.995185 -2.17643e-17 0.0980179
    outer loop
      vertex -3.43275 -8 89.9651
      vertex -3.43275 8.61603 89.9651
      vertex -3.5 8.51208 90.6479
    endloop
  endfacet
  facet normal 0.995185 -2.17643e-17 0.0980179
    outer loop
      vertex -3.5 -8 90.6479
      vertex -3.43275 -8 89.9651
      vertex -3.5 8.51208 90.6479
    endloop
  endfacet
  facet normal 0.995185 2.17643e-17 -0.0980179
    outer loop
      vertex -3.5 8.51208 90.6479
      vertex -3.43275 8.44894 91.3307
      vertex -3.43275 -8 91.3307
    endloop
  endfacet
  facet normal 0.995185 2.17643e-17 -0.0980179
    outer loop
      vertex -3.5 -8 90.6479
      vertex -3.5 8.51208 90.6479
      vertex -3.43275 -8 91.3307
    endloop
  endfacet
  facet normal 0.95694 6.44561e-17 -0.290284
    outer loop
      vertex -3.43275 8.44894 91.3307
      vertex -3.23358 8.42903 91.9873
      vertex -3.23358 -8 91.9873
    endloop
  endfacet
  facet normal 0.95694 6.44561e-17 -0.290284
    outer loop
      vertex -3.43275 -8 91.3307
      vertex -3.43275 8.44894 91.3307
      vertex -3.23358 -8 91.9873
    endloop
  endfacet
  facet normal 0.881922 1.04671e-16 -0.471396
    outer loop
      vertex -3.23358 8.42903 91.9873
      vertex -2.91014 8.45311 92.5924
      vertex -2.91014 -8 92.5924
    endloop
  endfacet
  facet normal 0.881922 1.04671e-16 -0.471396
    outer loop
      vertex -3.23358 -8 91.9873
      vertex -3.23358 8.42903 91.9873
      vertex -2.91014 -8 92.5924
    endloop
  endfacet
  facet normal 0.77301 1.40864e-16 -0.634393
    outer loop
      vertex -2.91014 8.45311 92.5924
      vertex -2.47487 8.52026 93.1227
      vertex -2.47487 -8 93.1227
    endloop
  endfacet
  facet normal 0.77301 1.40864e-16 -0.634393
    outer loop
      vertex -2.91014 -8 92.5924
      vertex -2.91014 8.45311 92.5924
      vertex -2.47487 -8 93.1227
    endloop
  endfacet
  facet normal 0.634393 1.71643e-16 -0.77301
    outer loop
      vertex -2.10554 8.59521 93.4259
      vertex -1.9445 8.62789 93.558
      vertex -2.47487 8.52026 93.1227
    endloop
  endfacet
  facet normal 0.634393 1.71643e-16 -0.77301
    outer loop
      vertex -2.47487 8.52026 93.1227
      vertex -1.9445 8.62789 93.558
      vertex -1.9445 -8 93.558
    endloop
  endfacet
  facet normal 0.634393 1.71643e-16 -0.77301
    outer loop
      vertex -2.47487 8.52026 93.1227
      vertex -1.9445 -8 93.558
      vertex -2.47487 -8 93.1227
    endloop
  endfacet
  facet normal -0.288315 0.950448 0.116286
    outer loop
      vertex -2.10554 8.59521 93.4259
      vertex -1.65827 8.33667 96.6479
      vertex -1.9445 8.62789 93.558
    endloop
  endfacet
  facet normal -0.288315 0.950448 0.116286
    outer loop
      vertex -1.9445 8.62789 93.558
      vertex -1.65827 8.33667 96.6479
      vertex -1.72651 8.67976 93.6745
    endloop
  endfacet
  facet normal -0.0973521 0.988433 0.116286
    outer loop
      vertex -1.72651 8.67976 93.6745
      vertex -1.65827 8.33667 96.6479
      vertex -1.33939 8.69354 93.8815
    endloop
  endfacet
  facet normal -0.0973521 0.988433 0.116286
    outer loop
      vertex -1.33939 8.69354 93.8815
      vertex -1.65827 8.33667 96.6479
      vertex 0 8.5 96.6479
    endloop
  endfacet
  facet normal -0.0973521 0.988433 0.116286
    outer loop
      vertex -0.682816 8.73478 94.0806
      vertex 0 8.5 96.6479
      vertex -0.30486 8.76762 94.1178
    endloop
  endfacet
  facet normal -0.0973521 0.988433 0.116286
    outer loop
      vertex -1.33939 8.69354 93.8815
      vertex 0 8.5 96.6479
      vertex -0.682816 8.73478 94.0806
    endloop
  endfacet
  facet normal 0 0 -1
    outer loop
      vertex 2.5 -8 90.6479
      vertex 2.5 -8.3 90.6479
      vertex -2.5 -8 90.6479
    endloop
  endfacet
  facet normal 0 0 -1
    outer loop
      vertex -2.5 -8 90.6479
      vertex 2.5 -8.3 90.6479
      vertex -2.5 -8.3 90.6479
    endloop
  endfacet
  facet normal 0 1 2.22045e-16
    outer loop
      vertex -3.23358 -8 91.9873
      vertex -2.91014 -8 92.5924
      vertex -3.43275 -8 91.3307
    endloop
  endfacet
  facet normal 0 1 2.22045e-16
    outer loop
      vertex -3.43275 -8 91.3307
      vertex -2.91014 -8 92.5924
      vertex -2.47487 -8 93.1227
    endloop
  endfacet
  facet normal 0 1 2.22045e-16
    outer loop
      vertex -3.43275 -8 91.3307
      vertex -2.47487 -8 93.1227
      vertex -1.9445 -8 93.558
    endloop
  endfacet
  facet normal 0 1 2.22045e-16
    outer loop
      vertex -3.43275 -8 91.3307
      vertex -1.9445 -8 93.558
      vertex -1.33939 -8 93.8815
    endloop
  endfacet
  facet normal 0 1 2.22045e-16
    outer loop
      vertex -3.43275 -8 91.3307
      vertex -1.33939 -8 93.8815
      vertex -0.682816 -8 94.0806
    endloop
  endfacet
  facet normal 0 1 2.22045e-16
    outer loop
      vertex -3.43275 -8 91.3307
      vertex -0.682816 -8 94.0806
      vertex 0 -8 94.1479
    endloop
  endfacet
  facet normal 0 1 2.22045e-16
    outer loop
      vertex -3.43275 -8 91.3307
      vertex 0 -8 94.1479
      vertex 0.682816 -8 94.0806
    endloop
  endfacet
  facet normal 0 1 2.22045e-16
    outer loop
      vertex -3.43275 -8 91.3307
      vertex 0.682816 -8 94.0806
      vertex 1.33939 -8 93.8815
    endloop
  endfacet
  facet normal 0 1 2.22045e-16
    outer loop
      vertex -3.43275 -8 91.3307
      vertex 1.33939 -8 93.8815
      vertex 1.9445 -8 93.558
    endloop
  endfacet
  facet normal 0 1 2.22045e-16
    outer loop
      vertex -3.43275 -8 91.3307
      vertex 1.9445 -8 93.558
      vertex 2.47487 -8 93.1227
    endloop
  endfacet
  facet normal 0 1 2.22045e-16
    outer loop
      vertex -3.43275 -8 91.3307
      vertex 2.47487 -8 93.1227
      vertex 2.91014 -8 92.5924
    endloop
  endfacet
  facet normal 0 1 2.22045e-16
    outer loop
      vertex -3.43275 -8 91.3307
      vertex 2.91014 -8 92.5924
      vertex 3.23358 -8 91.9873
    endloop
  endfacet
  facet normal 0 1 2.22045e-16
    outer loop
      vertex -3.43275 -8 91.3307
      vertex 3.23358 -8 91.9873
      vertex 3.43275 -8 91.3307
    endloop
  endfacet
  facet normal 0 1 2.22045e-16
    outer loop
      vertex -3.43275 -8 91.3307
      vertex 3.43275 -8 91.3307
      vertex 3.5 -8 90.6479
    endloop
  endfacet
  facet normal 0 1 2.22045e-16
    outer loop
      vertex 2.5 -8 90.6479
      vertex 3.5 -8 90.6479
      vertex 3.43275 -8 89.9651
    endloop
  endfacet
  facet normal 0 1 2.22045e-16
    outer loop
      vertex -3.43275 -8 91.3307
      vertex 3.5 -8 90.6479
      vertex 2.5 -8 90.6479
    endloop
  endfacet
  facet normal 0 1 2.22045e-16
    outer loop
      vertex -2.5 -8 90.6479
      vertex -3.43275 -8 91.3307
      vertex 2.5 -8 90.6479
    endloop
  endfacet
  facet normal 0 1 2.22045e-16
    outer loop
      vertex -3.43275 -8 91.3307
      vertex -2.5 -8 90.6479
      vertex -2.5 -8 88.2036
    endloop
  endfacet
  facet normal 0 1 2.22045e-16
    outer loop
      vertex -3.43275 -8 91.3307
      vertex -2.5 -8 88.2036
      vertex -2.91014 -8 88.7034
    endloop
  endfacet
  facet normal 0 1 2.22045e-16
    outer loop
      vertex -3.43275 -8 91.3307
      vertex -2.91014 -8 88.7034
      vertex -3.23358 -8 89.3085
    endloop
  endfacet
  facet normal 0 1 2.22045e-16
    outer loop
      vertex -3.43275 -8 91.3307
      vertex -3.23358 -8 89.3085
      vertex -3.43275 -8 89.9651
    endloop
  endfacet
  facet normal 0 1 2.22045e-16
    outer loop
      vertex -3.43275 -8 91.3307
      vertex -3.43275 -8 89.9651
      vertex -3.5 -8 90.6479
    endloop
  endfacet
  facet normal 0 1 2.22045e-16
    outer loop
      vertex 2.5 -8 90.6479
      vertex 3.43275 -8 89.9651
      vertex 3.23358 -8 89.3085
    endloop
  endfacet
  facet normal 0 1 2.22045e-16
    outer loop
      vertex 2.5 -8 90.6479
      vertex 3.23358 -8 89.3085
      vertex 2.91014 -8 88.7034
    endloop
  endfacet
  facet normal 0 1 2.22045e-16
    outer loop
      vertex 2.5 -8 90.6479
      vertex 2.91014 -8 88.7034
      vertex 2.5 -8 88.2036
    endloop
  endfacet
  facet normal 0 0 -1
    outer loop
      vertex -1.89395 0.784501 84.6479
      vertex -1.70451 1.13892 84.6479
      vertex -2.01061 0.399935 84.6479
    endloop
  endfacet
  facet normal 0 0 -1
    outer loop
      vertex -2.01061 0.399935 84.6479
      vertex -1.70451 1.13892 84.6479
      vertex -1.44957 1.44957 84.6479
    endloop
  endfacet
  facet normal 0 0 -1
    outer loop
      vertex -2.01061 0.399935 84.6479
      vertex -1.44957 1.44957 84.6479
      vertex -1.13892 1.70451 84.6479
    endloop
  endfacet
  facet normal 0 0 -1
    outer loop
      vertex -2.01061 0.399935 84.6479
      vertex -1.13892 1.70451 84.6479
      vertex -0.784501 1.89395 84.6479
    endloop
  endfacet
  facet normal 0 0 -1
    outer loop
      vertex -2.01061 0.399935 84.6479
      vertex -0.784501 1.89395 84.6479
      vertex -0.399935 2.01061 84.6479
    endloop
  endfacet
  facet normal 0 0 -1
    outer loop
      vertex -2.01061 0.399935 84.6479
      vertex -0.399935 2.01061 84.6479
      vertex 0 2.05 84.6479
    endloop
  endfacet
  facet normal 0 0 -1
    outer loop
      vertex -2.01061 0.399935 84.6479
      vertex 0 2.05 84.6479
      vertex 0.399935 2.01061 84.6479
    endloop
  endfacet
  facet normal 0 0 -1
    outer loop
      vertex -2.01061 0.399935 84.6479
      vertex 0.399935 2.01061 84.6479
      vertex 0.784501 1.89395 84.6479
    endloop
  endfacet
  facet normal 0 0 -1
    outer loop
      vertex -2.01061 0.399935 84.6479
      vertex 0.784501 1.89395 84.6479
      vertex 1.13892 1.70451 84.6479
    endloop
  endfacet
  facet normal 0 0 -1
    outer loop
      vertex -2.01061 0.399935 84.6479
      vertex 1.13892 1.70451 84.6479
      vertex 1.44957 1.44957 84.6479
    endloop
  endfacet
  facet normal 0 0 -1
    outer loop
      vertex -2.01061 0.399935 84.6479
      vertex 1.44957 1.44957 84.6479
      vertex 1.70451 1.13892 84.6479
    endloop
  endfacet
  facet normal 0 0 -1
    outer loop
      vertex -2.01061 0.399935 84.6479
      vertex 1.70451 1.13892 84.6479
      vertex 1.89395 0.784501 84.6479
    endloop
  endfacet
  facet normal 0 0 -1
    outer loop
      vertex -2.01061 0.399935 84.6479
      vertex 1.89395 0.784501 84.6479
      vertex 2.01061 0.399935 84.6479
    endloop
  endfacet
  facet normal 0 0 -1
    outer loop
      vertex -2.01061 0.399935 84.6479
      vertex 2.01061 0.399935 84.6479
      vertex 2.05 0 84.6479
    endloop
  endfacet
  facet normal 0 0 -1
    outer loop
      vertex -2.01061 0.399935 84.6479
      vertex 2.05 0 84.6479
      vertex 2.01061 -0.399935 84.6479
    endloop
  endfacet
  facet normal 0 0 -1
    outer loop
      vertex -2.01061 0.399935 84.6479
      vertex 2.01061 -0.399935 84.6479
      vertex 1.89395 -0.784501 84.6479
    endloop
  endfacet
  facet normal 0 0 -1
    outer loop
      vertex -2.01061 0.399935 84.6479
      vertex 1.89395 -0.784501 84.6479
      vertex 1.70451 -1.13892 84.6479
    endloop
  endfacet
  facet normal 0 0 -1
    outer loop
      vertex -2.01061 0.399935 84.6479
      vertex 1.70451 -1.13892 84.6479
      vertex 1.44957 -1.44957 84.6479
    endloop
  endfacet
  facet normal 0 0 -1
    outer loop
      vertex -2.01061 0.399935 84.6479
      vertex 1.44957 -1.44957 84.6479
      vertex 1.13892 -1.70451 84.6479
    endloop
  endfacet
  facet normal 0 0 -1
    outer loop
      vertex -2.01061 0.399935 84.6479
      vertex 1.13892 -1.70451 84.6479
      vertex 0.784501 -1.89395 84.6479
    endloop
  endfacet
  facet normal 0 0 -1
    outer loop
      vertex -2.01061 0.399935 84.6479
      vertex 0.784501 -1.89395 84.6479
      vertex 0.399935 -2.01061 84.6479
    endloop
  endfacet
  facet normal 0 0 -1
    outer loop
      vertex -2.01061 0.399935 84.6479
      vertex 0.399935 -2.01061 84.6479
      vertex 0 -2.05 84.6479
    endloop
  endfacet
  facet normal 0 0 -1
    outer loop
      vertex -2.01061 0.399935 84.6479
      vertex 0 -2.05 84.6479
      vertex -0.399935 -2.01061 84.6479
    endloop
  endfacet
  facet normal 0 0 -1
    outer loop
      vertex -2.01061 0.399935 84.6479
      vertex -0.399935 -2.01061 84.6479
      vertex -0.784501 -1.89395 84.6479
    endloop
  endfacet
  facet normal 0 0 -1
    outer loop
      vertex -2.01061 0.399935 84.6479
      vertex -0.784501 -1.89395 84.6479
      vertex -1.13892 -1.70451 84.6479
    endloop
  endfacet
  facet normal 0 0 -1
    outer loop
      vertex -2.01061 0.399935 84.6479
      vertex -1.13892 -1.70451 84.6479
      vertex -1.44957 -1.44957 84.6479
    endloop
  endfacet
  facet normal 0 0 -1
    outer loop
      vertex -2.01061 0.399935 84.6479
      vertex -1.44957 -1.44957 84.6479
      vertex -1.70451 -1.13892 84.6479
    endloop
  endfacet
  facet normal 0 0 -1
    outer loop
      vertex -2.01061 0.399935 84.6479
      vertex -1.70451 -1.13892 84.6479
      vertex -1.89395 -0.784501 84.6479
    endloop
  endfacet
  facet normal 0 0 -1
    outer loop
      vertex -2.01061 0.399935 84.6479
      vertex -1.89395 -0.784501 84.6479
      vertex -2.01061 -0.399935 84.6479
    endloop
  endfacet
  facet normal 0 0 -1
    outer loop
      vertex -2.01061 0.399935 84.6479
      vertex -2.01061 -0.399935 84.6479
      vertex -2.05 0 84.6479
    endloop
  endfacet
  facet normal -0.0973524 0.988433 0.116286
    outer loop
      vertex 0 8.79412 94.1479
      vertex -0.30486 8.76762 94.1178
      vertex 0 8.5 96.6479
    endloop
  endfacet
  facet normal 0.0973521 0.988433 0.116286
    outer loop
      vertex 0 8.5 96.6479
      vertex 1.65827 8.33667 96.6479
      vertex 0 8.79412 94.1479
    endloop
  endfacet
  facet normal 0.0973521 0.988433 0.116286
    outer loop
      vertex 1.33939 8.69354 93.8815
      vertex 1.65827 8.33667 96.6479
      vertex 1.38599 8.69188 93.8565
    endloop
  endfacet
  facet normal 0.0973521 0.988433 0.116286
    outer loop
      vertex 0.682816 8.73478 94.0806
      vertex 1.65827 8.33667 96.6479
      vertex 1.33939 8.69354 93.8815
    endloop
  endfacet
  facet normal 0.0973521 0.988433 0.116286
    outer loop
      vertex 0 8.79412 94.1479
      vertex 1.65827 8.33667 96.6479
      vertex 0.682816 8.73478 94.0806
    endloop
  endfacet
  facet normal 0.0973524 0.988433 0.116286
    outer loop
      vertex 1.72651 8.67976 93.6745
      vertex 1.38599 8.69188 93.8565
      vertex 1.65827 8.33667 96.6479
    endloop
  endfacet
  facet normal 0.960769 -0.27735 0
    outer loop
      vertex -1.80236e-07 6.77817 95.3697
      vertex -1.80236e-07 6.77817 96.6479
      vertex -3.36805 -4.88909 96.6479
    endloop
  endfacet
  facet normal 0.960769 -0.27735 0
    outer loop
      vertex -3.36805 -4.88909 95.3697
      vertex -1.80236e-07 6.77817 95.3697
      vertex -3.36805 -4.88909 96.6479
    endloop
  endfacet
  facet normal 1.84612e-08 1 0
    outer loop
      vertex 3.36805 -4.88909 96.6479
      vertex 3.36805 -4.88909 95.3697
      vertex -3.36805 -4.88909 96.6479
    endloop
  endfacet
  facet normal 1.84612e-08 1 0
    outer loop
      vertex -3.36805 -4.88909 96.6479
      vertex 3.36805 -4.88909 95.3697
      vertex -3.36805 -4.88909 95.3697
    endloop
  endfacet
  facet normal -0.960769 -0.27735 0
    outer loop
      vertex 3.36805 -4.88909 96.6479
      vertex -1.80236e-07 6.77817 96.6479
      vertex 3.36805 -4.88909 95.3697
    endloop
  endfacet
  facet normal -0.960769 -0.27735 0
    outer loop
      vertex 3.36805 -4.88909 95.3697
      vertex -1.80236e-07 6.77817 96.6479
      vertex -1.80236e-07 6.77817 95.3697
    endloop
  endfacet
  facet normal -0.471396 1.95826e-16 -0.881922
    outer loop
      vertex 1.38599 8.69188 93.8565
      vertex 1.72651 8.67976 93.6745
      vertex 1.33939 8.69354 93.8815
    endloop
  endfacet
  facet normal -0.471396 1.95826e-16 -0.881922
    outer loop
      vertex 1.33939 8.69354 93.8815
      vertex 1.72651 8.67976 93.6745
      vertex 1.9445 8.62789 93.558
    endloop
  endfacet
  facet normal -0.471396 1.95826e-16 -0.881922
    outer loop
      vertex 1.33939 8.69354 93.8815
      vertex 1.9445 8.62789 93.558
      vertex 1.9445 -8 93.558
    endloop
  endfacet
  facet normal -0.471396 1.95826e-16 -0.881922
    outer loop
      vertex 1.33939 8.69354 93.8815
      vertex 1.9445 -8 93.558
      vertex 1.33939 -8 93.8815
    endloop
  endfacet
  facet normal -0.634393 1.71643e-16 -0.77301
    outer loop
      vertex 2.47487 8.52026 93.1227
      vertex 2.47487 -8 93.1227
      vertex 1.9445 8.62789 93.558
    endloop
  endfacet
  facet normal -0.634393 1.71643e-16 -0.77301
    outer loop
      vertex 1.9445 8.62789 93.558
      vertex 2.47487 -8 93.1227
      vertex 1.9445 -8 93.558
    endloop
  endfacet
  facet normal -0.77301 1.40864e-16 -0.634393
    outer loop
      vertex 2.91014 8.45311 92.5924
      vertex 2.91014 -8 92.5924
      vertex 2.47487 8.52026 93.1227
    endloop
  endfacet
  facet normal -0.77301 1.40864e-16 -0.634393
    outer loop
      vertex 2.47487 8.52026 93.1227
      vertex 2.91014 -8 92.5924
      vertex 2.47487 -8 93.1227
    endloop
  endfacet
  facet normal 0.471396 1.95826e-16 -0.881922
    outer loop
      vertex -1.72651 8.67976 93.6745
      vertex -1.33939 8.69354 93.8815
      vertex -1.9445 8.62789 93.558
    endloop
  endfacet
  facet normal 0.471396 1.95826e-16 -0.881922
    outer loop
      vertex -1.9445 8.62789 93.558
      vertex -1.33939 8.69354 93.8815
      vertex -1.33939 -8 93.8815
    endloop
  endfacet
  facet normal 0.471396 1.95826e-16 -0.881922
    outer loop
      vertex -1.9445 8.62789 93.558
      vertex -1.33939 -8 93.8815
      vertex -1.9445 -8 93.558
    endloop
  endfacet
  facet normal 0.290284 2.12483e-16 -0.95694
    outer loop
      vertex -0.682816 8.73478 94.0806
      vertex -0.682816 -8 94.0806
      vertex -1.33939 8.69354 93.8815
    endloop
  endfacet
  facet normal 0.290284 2.12483e-16 -0.95694
    outer loop
      vertex -1.33939 8.69354 93.8815
      vertex -0.682816 -8 94.0806
      vertex -1.33939 -8 93.8815
    endloop
  endfacet
  facet normal 0.0980179 2.20975e-16 -0.995185
    outer loop
      vertex -0.30486 8.76762 94.1178
      vertex 0 8.79412 94.1479
      vertex 0 -8 94.1479
    endloop
  endfacet
  facet normal 0.0980179 2.20975e-16 -0.995185
    outer loop
      vertex -0.30486 8.76762 94.1178
      vertex 0 -8 94.1479
      vertex -0.682816 8.73478 94.0806
    endloop
  endfacet
  facet normal 0.0980179 2.20975e-16 -0.995185
    outer loop
      vertex 0 -8 94.1479
      vertex -0.682816 -8 94.0806
      vertex -0.682816 8.73478 94.0806
    endloop
  endfacet
  facet normal -0.290284 2.12483e-16 -0.95694
    outer loop
      vertex 1.33939 8.69354 93.8815
      vertex 1.33939 -8 93.8815
      vertex 0.682816 8.73478 94.0806
    endloop
  endfacet
  facet normal -0.290284 2.12483e-16 -0.95694
    outer loop
      vertex 0.682816 8.73478 94.0806
      vertex 1.33939 -8 93.8815
      vertex 0.682816 -8 94.0806
    endloop
  endfacet
  facet normal -0.0980179 2.20975e-16 -0.995185
    outer loop
      vertex 0.682816 8.73478 94.0806
      vertex 0.682816 -8 94.0806
      vertex 0 8.79412 94.1479
    endloop
  endfacet
  facet normal -0.0980179 2.20975e-16 -0.995185
    outer loop
      vertex 0 8.79412 94.1479
      vertex 0.682816 -8 94.0806
      vertex 0 -8 94.1479
    endloop
  endfacet
  facet normal 0 0 1
    outer loop
      vertex 3.36805 -4.88909 95.3697
      vertex -1.80236e-07 6.77817 95.3697
      vertex -3.36805 -4.88909 95.3697
    endloop
  endfacet
endsolid OpenSCAD_Model
